<?xml version="1.0" encoding="UTF-8" standalone="no"?>
<!DOCTYPE svg PUBLIC "-//W3C//DTD SVG 1.1//EN" "http://www.w3.org/Graphics/SVG/1.1/DTD/svg11.dtd">
<svg xmlns="http://www.w3.org/2000/svg" version="1.1" viewBox="0.00 0.00 500.00 233.00">
<clipPath id="clipping-path-0">
<path d="
  M 0.00 0.00
  L 500.00 0.00
  L 500.00 233.00
  L 0.00 233.00
  L 0.00 0.00
  Z"/>
</clipPath>
<g stroke-width="5.00" fill="none" stroke-linecap="butt" clip-path="url(#clipping-path-0)">
<path stroke="#f6b295" vector-effect="non-scaling-stroke" d="
  M 28.01 55.94
  Q 27.78 56.04 27.58 56.31
  Q 7.80 83.62 8.87 117.24
  Q 9.02 122.12 9.17 127.00
  Q 9.25 129.74 11.82 140.00
  C 13.76 147.75 17.04 154.56 20.58 161.65
  Q 20.69 161.86 20.88 162.02
  C 21.23 162.31 21.45 162.48 21.63 162.91
  Q 22.37 164.69 23.89 166.98
  C 38.57 188.94 60.30 204.37 86.09 209.79
  C 94.32 211.51 103.50 211.81 112.01 211.54
  C 155.44 210.14 194.06 175.37 201.98 133.12
  Q 203.08 127.20 203.34 118.30
  Q 203.65 107.66 203.13 103.37
  Q 198.85 68.62 175.16 45.34
  Q 158.66 29.13 136.67 21.93
  Q 133.86 21.01 131.05 20.10
  C 126.73 18.69 122.11 18.20 117.63 17.41
  Q 112.74 16.54 99.76 17.24
  C 71.87 18.75 46.03 32.64 28.85 54.53
  Q 28.61 54.84 28.47 55.38
  Q 28.37 55.77 28.01 55.94"
/>
<path stroke="#809bb3" vector-effect="non-scaling-stroke" d="
  M 271.05 67.10
  A 0.30 0.30 0.0 0 0 270.75 67.40
  L 270.74 114.45
  A 0.30 0.30 0.0 0 1 270.19 114.62
  L 237.00 67.20
  A 0.30 0.30 0.0 0 0 236.75 67.07
  L 223.55 67.08
  A 0.30 0.30 0.0 0 0 223.25 67.38
  L 223.25 122.20
  A 0.30 0.30 0.0 0 0 223.55 122.50
  L 236.91 122.50
  A 0.30 0.30 0.0 0 0 237.21 122.20
  L 237.21 92.69
  A 0.30 0.30 0.0 0 1 237.76 92.52
  L 270.82 139.87
  A 0.30 0.30 0.0 0 0 271.07 140.00
  L 284.27 140.00
  A 0.30 0.30 0.0 0 0 284.57 139.70
  L 284.58 67.37
  A 0.30 0.30 0.0 0 0 284.28 67.07
  L 271.05 67.10"
/>
<path stroke="#809bb3" vector-effect="non-scaling-stroke" d="
  M 333.44 108.96
  L 333.43 126.03
  Q 333.43 126.64 332.82 126.67
  C 314.70 127.64 303.75 117.35 306.17 98.85
  C 308.99 77.24 331.46 80.55 346.80 80.47
  Q 347.33 80.47 347.33 79.94
  L 347.31 67.78
  A 0.65 0.65 0.0 0 0 346.68 67.13
  C 327.44 66.60 302.94 66.64 294.47 87.93
  C 291.31 95.87 290.97 106.57 293.00 115.01
  C 299.12 140.59 325.73 140.49 346.65 139.95
  A 0.69 0.69 0.0 0 0 347.32 139.26
  L 347.33 94.79
  A 0.29 0.29 0.0 0 0 347.04 94.50
  L 319.92 94.50
  Q 319.35 94.50 319.35 95.08
  L 319.34 107.91
  A 0.57 0.57 0.0 0 0 319.91 108.48
  L 332.96 108.49
  Q 333.44 108.49 333.44 108.96"
/>
<path stroke="#809bb3" vector-effect="non-scaling-stroke" d="
  M 419.75 100.31
  L 419.75 121.97
  A 0.47 0.46 0.0 0 0 420.22 122.43
  L 433.43 122.44
  A 0.18 0.17 90.0 0 0 433.60 122.26
  L 433.60 67.97
  A 0.89 0.89 0.0 0 0 432.72 67.08
  L 420.59 67.07
  A 1.17 1.16 12.2 0 0 419.53 67.75
  L 394.96 120.46
  A 0.31 0.31 0.0 0 1 394.40 120.47
  L 368.61 67.80
  A 1.31 1.30 76.8 0 0 367.44 67.07
  L 355.33 67.08
  A 0.84 0.84 0.0 0 0 354.50 67.92
  L 354.50 139.25
  A 0.75 0.75 0.0 0 0 355.25 140.00
  L 367.32 140.00
  Q 368.46 140.00 368.46 138.86
  L 368.46 99.05
  A 0.19 0.18 31.9 0 1 368.81 98.97
  L 388.23 136.56
  A 0.93 0.92 76.2 0 0 389.05 137.06
  L 400.22 137.06
  A 1.06 1.06 0.0 0 0 401.17 136.47
  L 419.29 100.20
  Q 419.75 99.27 419.75 100.31"
/>
<path stroke="#809bb3" vector-effect="non-scaling-stroke" d="
  M 456.24 110.72
  Q 461.88 110.67 467.49 110.52
  C 477.80 110.23 488.08 105.35 490.46 94.50
  C 494.21 77.32 482.32 67.13 466.25 67.08
  Q 454.60 67.04 442.91 67.10
  A 0.91 0.91 0.0 0 0 442.00 68.01
  L 442.00 79.99
  Q 442.00 80.47 442.49 80.48
  Q 454.37 80.53 466.25 80.49
  C 480.56 80.43 481.40 97.20 466.25 97.19
  Q 454.25 97.19 442.34 97.16
  A 0.34 0.34 0.0 0 0 442.00 97.50
  L 442.00 139.25
  A 0.75 0.74 -0.0 0 0 442.75 139.99
  L 454.53 140.00
  Q 455.69 140.00 455.69 138.84
  L 455.70 111.26
  Q 455.70 110.72 456.24 110.72"
/>
<path stroke="#809bb3" vector-effect="non-scaling-stroke" d="
  M 252.59 167.93
  L 253.07 154.10
  Q 253.09 153.60 252.60 153.68
  L 249.12 154.24
  Q 248.85 154.28 248.70 154.50
  Q 248.54 154.73 248.51 154.99
  A 0.33 0.33 0.0 0 0 248.82 155.36
  Q 249.51 155.40 249.89 155.90
  Q 250.10 156.16 250.10 156.66
  Q 250.13 162.09 250.09 167.56
  Q 250.08 168.10 249.67 168.45
  Q 249.15 168.90 248.97 169.53
  A 0.46 0.45 -83.0 0 0 249.42 170.11
  L 253.54 169.97
  A 0.49 0.48 -88.7 0 0 254.01 169.51
  Q 254.02 169.36 254.02 169.22
  Q 254.04 168.88 253.75 168.70
  Q 253.46 168.51 253.10 168.49
  Q 252.57 168.46 252.59 167.93"
/>
<path stroke="#809bb3" vector-effect="non-scaling-stroke" d="
  M 292.59 167.93
  L 293.07 154.15
  Q 293.08 153.71 292.65 153.73
  Q 290.73 153.80 288.90 154.42
  Q 288.70 154.48 288.62 154.62
  Q 288.50 154.79 288.51 154.97
  Q 288.53 155.33 288.89 155.39
  Q 290.10 155.59 290.11 157.25
  Q 290.13 162.38 290.09 167.54
  Q 290.08 168.09 289.67 168.45
  Q 289.16 168.90 288.97 169.53
  A 0.45 0.45 0.0 0 0 289.42 170.11
  L 293.54 169.97
  A 0.49 0.48 -88.7 0 0 294.01 169.51
  Q 294.02 169.36 294.02 169.21
  Q 294.04 168.87 293.74 168.69
  Q 293.45 168.52 293.11 168.50
  Q 292.57 168.47 292.59 167.93"
/>
<path stroke="#809bb3" vector-effect="non-scaling-stroke" d="
  M 312.64 160.22
  L 313.05 154.08
  Q 313.08 153.67 312.66 153.70
  Q 309.98 153.90 308.85 154.34
  Q 308.44 154.50 308.37 154.77
  Q 308.23 155.28 308.75 155.41
  L 309.47 155.58
  Q 310.00 155.70 310.00 156.25
  L 310.00 169.22
  Q 310.00 169.62 310.39 169.76
  C 322.37 173.82 320.89 155.45 313.20 160.55
  Q 312.59 160.96 312.64 160.22"
/>
<path stroke="#809bb3" vector-effect="non-scaling-stroke" d="
  M 337.59 167.93
  L 338.07 154.15
  Q 338.08 153.73 337.66 153.74
  Q 335.73 153.79 334.29 154.26
  Q 332.70 154.78 334.23 155.47
  L 334.68 155.67
  A 0.76 0.75 -78.0 0 1 335.12 156.36
  L 335.10 167.50
  Q 335.10 168.08 334.67 168.46
  Q 334.15 168.90 333.97 169.53
  A 0.45 0.45 0.0 0 0 334.42 170.11
  L 338.55 169.97
  Q 338.98 169.96 339.01 169.53
  Q 339.02 169.36 339.02 169.19
  Q 339.04 168.87 338.77 168.71
  Q 338.47 168.52 338.11 168.50
  Q 337.57 168.47 337.59 167.93"
/>
<path stroke="#809bb3" vector-effect="non-scaling-stroke" d="
  M 392.57 167.62
  L 393.06 154.14
  Q 393.07 153.71 392.63 153.72
  Q 390.73 153.79 388.90 154.39
  Q 388.71 154.46 388.62 154.59
  Q 388.51 154.77 388.51 154.93
  Q 388.51 155.32 388.89 155.38
  Q 390.09 155.56 390.11 157.00
  Q 390.15 162.24 390.10 167.51
  Q 390.09 168.05 389.69 168.42
  Q 389.21 168.85 389.00 169.43
  Q 388.77 170.07 389.45 170.06
  L 393.48 169.99
  A 0.44 0.44 0.0 0 0 393.91 169.47
  Q 393.76 168.66 393.01 168.33
  Q 392.55 168.13 392.57 167.62"
/>
<path stroke="#809bb3" vector-effect="non-scaling-stroke" d="
  M 449.35 167.83
  L 449.82 154.10
  Q 449.84 153.61 449.36 153.68
  L 446.00 154.21
  Q 445.81 154.24 445.50 154.50
  Q 445.27 154.69 445.25 154.99
  A 0.44 0.44 0.0 0 0 445.59 155.44
  L 446.33 155.60
  A 0.69 0.68 -83.7 0 1 446.86 156.27
  Q 446.90 161.78 446.86 167.29
  C 446.86 167.92 446.60 168.34 446.23 168.78
  Q 445.12 170.10 446.85 170.06
  L 450.29 169.97
  A 0.64 0.64 0.0 0 0 450.77 168.92
  Q 450.45 168.54 449.94 168.50
  Q 449.32 168.45 449.35 167.83"
/>
<path stroke="#809bb3" vector-effect="non-scaling-stroke" d="
  M 245.59 155.96
  A 1.64 1.64 0.0 0 0 243.95 154.32
  A 1.64 1.64 0.0 0 0 242.31 155.96
  A 1.64 1.64 0.0 0 0 243.95 157.60
  A 1.64 1.64 0.0 0 0 245.59 155.96"
/>
<path stroke="#809bb3" vector-effect="non-scaling-stroke" d="
  M 282.09 168.01
  C 275.01 170.00 274.34 155.58 282.37 157.92
  Q 282.88 158.07 282.97 158.59
  L 283.22 160.09
  A 0.57 0.56 -8.1 0 0 283.84 160.55
  L 284.50 160.48
  Q 285.16 160.40 285.26 159.74
  L 285.68 156.72
  Q 285.75 156.19 285.23 156.04
  C 268.96 151.65 269.91 175.56 284.99 169.31
  Q 285.44 169.13 285.35 168.65
  Q 284.81 165.78 286.05 163.24
  Q 286.30 162.74 285.74 162.74
  L 281.17 162.76
  A 0.61 0.61 0.0 0 0 280.56 163.33
  L 280.50 163.98
  Q 280.46 164.49 280.98 164.50
  L 282.01 164.51
  Q 282.75 164.52 282.74 165.26
  L 282.71 167.21
  Q 282.70 167.84 282.09 168.01"
/>
<path stroke="#809bb3" vector-effect="non-scaling-stroke" d="
  M 228.64 161.12
  Q 231.60 165.20 234.20 169.55
  C 234.85 170.63 235.67 170.78 236.79 170.34
  Q 237.17 170.18 237.18 169.77
  L 237.47 158.24
  Q 237.49 157.61 238.10 157.41
  Q 238.93 157.14 239.00 156.25
  Q 239.04 155.73 238.51 155.73
  L 233.81 155.77
  Q 233.40 155.77 233.41 156.18
  L 233.41 156.76
  Q 233.42 157.11 233.76 157.17
  L 234.46 157.30
  A 0.67 0.67 0.0 0 1 235.01 157.96
  L 235.00 164.23
  Q 234.99 165.35 234.38 164.41
  L 229.10 156.19
  Q 228.82 155.75 228.29 155.75
  L 224.52 155.75
  A 0.48 0.47 -83.0 0 0 224.06 156.11
  Q 223.92 156.67 224.42 157.10
  A 0.50 0.47 72.8 0 0 224.60 157.20
  L 225.50 157.50
  Q 226.04 157.68 226.02 158.25
  L 225.71 167.45
  Q 225.69 167.92 225.34 168.22
  Q 224.99 168.54 224.61 168.82
  Q 224.39 168.99 224.31 169.15
  Q 224.21 169.37 224.24 169.58
  Q 224.31 170.07 224.80 170.06
  L 229.36 169.98
  Q 229.94 169.97 229.96 169.39
  L 229.98 169.02
  Q 230.00 168.54 229.52 168.53
  L 228.66 168.50
  Q 228.10 168.48 228.11 167.92
  L 228.18 161.27
  Q 228.19 160.50 228.64 161.12"
/>
<path stroke="#809bb3" vector-effect="non-scaling-stroke" d="
  M 359.43 160.99
  L 359.84 167.77
  Q 359.87 168.28 359.39 168.46
  Q 358.50 168.78 358.48 169.65
  Q 358.46 170.12 358.93 170.11
  L 363.53 169.97
  Q 363.98 169.95 363.99 169.50
  Q 364.01 168.52 363.01 168.42
  Q 362.41 168.36 362.36 167.76
  Q 362.14 165.30 361.76 159.25
  Q 361.64 157.34 362.70 157.18
  Q 363.28 157.09 363.43 156.53
  L 363.52 156.19
  Q 363.64 155.72 363.15 155.72
  L 358.99 155.78
  Q 358.49 155.79 358.33 156.26
  L 355.84 164.03
  Q 355.43 165.32 355.04 164.02
  L 352.70 156.26
  Q 352.54 155.74 352.00 155.74
  L 347.63 155.76
  A 0.41 0.40 -3.1 0 0 347.22 156.20
  L 347.26 156.56
  Q 347.33 157.18 347.95 157.22
  Q 349.12 157.30 349.00 158.50
  Q 348.58 162.72 348.14 166.95
  Q 348.01 168.16 347.02 168.79
  Q 346.75 168.96 346.71 169.29
  Q 346.69 169.45 346.69 169.62
  Q 346.69 170.08 347.15 170.07
  L 350.95 169.99
  Q 351.41 169.97 351.57 169.55
  L 351.66 169.29
  Q 351.78 168.97 351.52 168.76
  Q 351.20 168.48 350.79 168.51
  A 0.69 0.69 0.0 0 1 350.07 167.78
  L 350.54 161.03
  Q 350.63 159.61 351.08 160.96
  L 353.59 168.48
  Q 354.92 172.45 356.27 168.49
  L 358.86 160.91
  Q 359.34 159.49 359.43 160.99"
/>
<path stroke="#809bb3" vector-effect="non-scaling-stroke" d="
  M 433.61 158.10
  L 433.56 167.53
  A 0.73 0.71 -11.9 0 1 433.12 168.19
  Q 432.10 168.61 431.97 169.65
  Q 431.91 170.14 432.40 170.12
  L 437.80 169.96
  Q 438.43 169.94 438.54 169.32
  L 438.58 169.06
  A 0.41 0.41 0.0 0 0 438.21 168.58
  L 436.96 168.47
  Q 436.50 168.43 436.49 167.96
  L 436.46 165.51
  Q 436.45 164.95 437.01 164.97
  C 444.23 165.31 446.09 156.24 439.75 155.77
  Q 437.96 155.64 432.64 155.81
  Q 432.11 155.82 432.03 156.35
  Q 431.97 156.75 432.32 157.06
  Q 432.45 157.17 432.75 157.25
  Q 432.93 157.30 433.11 157.37
  Q 433.61 157.57 433.61 158.10"
/>
<path stroke="#809bb3" vector-effect="non-scaling-stroke" d="
  M 417.34 159.36
  Q 417.51 158.92 417.52 158.43
  A 0.48 0.47 74.7 0 0 416.79 158.01
  L 413.29 160.27
  A 0.53 0.53 0.0 0 0 413.17 161.06
  Q 413.52 161.48 414.03 161.67
  Q 414.48 161.83 414.49 162.31
  Q 414.55 165.04 414.51 167.76
  C 414.46 170.33 417.45 170.81 419.20 169.37
  Q 421.16 167.76 418.49 168.02
  Q 418.05 168.06 417.60 167.88
  A 0.77 0.76 -79.2 0 1 417.11 167.15
  L 417.15 162.05
  Q 417.15 161.51 417.70 161.51
  L 419.48 161.51
  A 0.52 0.52 0.0 0 0 420.00 160.99
  L 420.00 160.73
  Q 420.00 160.00 419.27 160.00
  L 417.77 160.00
  A 0.47 0.46 -79.2 0 1 417.34 159.36"
/>
<path stroke="#809bb3" vector-effect="non-scaling-stroke" d="
  M 242.76 162.23
  L 242.75 167.75
  A 0.88 0.87 -12.9 0 1 242.25 168.54
  Q 241.56 168.87 241.33 169.61
  A 0.41 0.41 0.0 0 0 241.74 170.15
  L 246.18 169.95
  A 0.54 0.54 0.0 0 0 246.68 169.47
  L 246.71 169.14
  Q 246.75 168.72 246.33 168.69
  Q 245.80 168.64 245.50 168.35
  Q 245.27 168.12 245.28 167.59
  Q 245.35 163.88 245.68 160.13
  Q 245.73 159.54 245.14 159.64
  L 241.97 160.18
  A 0.69 0.69 0.0 0 0 242.04 161.54
  Q 242.20 161.55 242.35 161.61
  Q 242.76 161.78 242.76 162.23"
/>
<path stroke="#809bb3" vector-effect="non-scaling-stroke" d="
  M 260.04 164.78
  L 264.50 164.77
  Q 265.02 164.77 265.14 164.27
  C 266.54 158.70 259.25 158.23 257.20 162.00
  C 254.27 167.39 259.23 172.80 264.54 169.06
  Q 265.24 168.57 264.95 167.95
  Q 264.74 167.49 264.26 167.64
  Q 262.82 168.11 261.32 168.01
  A 1.97 1.97 0.0 0 1 259.65 166.84
  L 259.27 165.97
  Q 258.75 164.78 260.04 164.78"
/>
<path stroke="#809bb3" vector-effect="non-scaling-stroke" d="
  M 299.6398 170.0589
  A 5.48 5.00 109.4 0 0 306.1761 166.5508
  A 5.48 5.00 109.4 0 0 303.2802 159.7211
  A 5.48 5.00 109.4 0 0 296.7439 163.2292
  A 5.48 5.00 109.4 0 0 299.6398 170.0589"
/>
<path stroke="#809bb3" vector-effect="non-scaling-stroke" d="
  M 327.68 169.12
  Q 328.06 169.96 329.03 170.19
  Q 329.59 170.32 330.08 170.02
  Q 331.10 169.41 331.66 168.34
  A 0.38 0.38 0.0 0 0 331.25 167.79
  L 330.31 167.96
  A 0.56 0.56 0.0 0 1 329.65 167.35
  C 329.87 165.21 330.71 161.85 329.00 160.33
  C 327.31 158.83 323.88 159.83 322.53 161.37
  A 0.61 0.61 0.0 0 0 322.57 162.21
  L 322.79 162.42
  A 0.45 0.44 45.5 0 0 323.39 162.43
  Q 324.90 161.07 326.47 161.80
  Q 327.72 162.38 327.36 163.71
  Q 327.24 164.16 326.79 164.27
  L 323.23 165.11
  A 1.80 1.80 0.0 0 0 321.86 166.94
  Q 321.98 169.52 324.43 170.15
  A 1.29 1.29 0.0 0 0 325.53 169.94
  L 326.94 168.92
  Q 327.43 168.56 327.68 169.12"
/>
<path stroke="#809bb3" vector-effect="non-scaling-stroke" d="
  M 372.40 169.03
  C 373.53 171.43 375.70 169.81 376.43 168.27
  Q 376.76 167.58 376.03 167.82
  Q 375.54 167.98 375.01 167.91
  A 0.64 0.63 5.0 0 1 374.46 167.26
  C 374.52 164.77 376.04 159.61 371.74 159.53
  Q 369.38 159.48 367.13 161.33
  A 0.52 0.52 0.0 0 0 367.09 162.10
  L 367.36 162.36
  A 0.36 0.35 -33.5 0 0 367.73 162.43
  L 369.94 161.60
  A 1.51 1.50 67.9 0 1 371.86 162.42
  L 372.11 163.02
  A 0.93 0.92 -18.4 0 1 371.47 164.28
  L 367.94 165.12
  A 1.98 1.97 -21.0 0 0 366.66 167.98
  C 368.04 170.52 369.57 170.75 371.70 168.88
  Q 372.15 168.49 372.40 169.03"
/>
<path stroke="#809bb3" vector-effect="non-scaling-stroke" d="
  M 382.77 161.15
  Q 382.70 160.66 382.83 160.09
  A 0.46 0.46 0.0 0 0 382.27 159.54
  L 378.85 160.33
  A 0.52 0.52 0.0 0 0 378.79 161.32
  L 379.57 161.60
  A 0.76 0.75 9.9 0 1 380.08 162.31
  L 380.08 167.69
  Q 380.08 168.14 379.71 168.41
  Q 379.17 168.81 378.87 169.40
  Q 378.55 170.03 379.25 170.02
  L 383.93 170.00
  A 0.74 0.73 -81.4 0 0 384.63 169.48
  L 384.75 169.08
  Q 384.91 168.53 384.33 168.52
  L 383.25 168.51
  Q 382.72 168.50 382.70 167.97
  C 382.63 166.48 382.19 162.90 384.06 162.35
  Q 384.63 162.18 384.77 162.75
  L 384.98 163.56
  Q 385.06 163.90 385.40 163.99
  Q 385.65 164.05 385.91 163.99
  Q 386.38 163.88 386.43 163.40
  L 386.75 160.22
  Q 386.82 159.51 386.12 159.61
  Q 384.33 159.87 383.34 161.29
  Q 382.88 161.94 382.77 161.15"
/>
<path stroke="#809bb3" vector-effect="non-scaling-stroke" d="
  M 405.78 164.77
  L 409.91 164.77
  A 1.20 1.20 0.0 0 0 411.08 163.32
  L 410.68 161.45
  A 2.37 2.37 0.0 0 0 408.48 159.58
  C 401.13 159.19 399.63 168.90 406.05 170.22
  Q 408.38 170.70 410.02 169.23
  Q 411.94 167.51 409.38 167.84
  L 407.56 168.07
  A 2.07 2.07 0.0 0 1 405.42 166.89
  L 405.00 165.98
  Q 404.44 164.77 405.78 164.77"
/>
<path stroke="#809bb3" vector-effect="non-scaling-stroke" d="
  M 458.91 169.02
  C 459.93 171.32 462.28 169.99 462.86 168.21
  Q 463.04 167.64 462.46 167.75
  L 461.49 167.93
  A 0.49 0.48 85.2 0 1 460.92 167.44
  C 460.99 164.55 462.79 159.86 457.99 159.52
  Q 456.37 159.40 454.01 161.05
  A 0.75 0.75 0.0 0 0 453.77 162.02
  L 453.94 162.33
  A 0.41 0.41 0.0 0 0 454.56 162.46
  Q 456.87 160.52 458.64 162.81
  A 0.87 0.87 0.0 0 1 458.17 164.18
  C 456.24 164.68 451.80 164.85 453.43 168.33
  Q 454.33 170.25 456.25 170.12
  Q 456.78 170.09 457.17 169.72
  L 458.11 168.85
  Q 458.62 168.38 458.91 169.02"
/>
<path stroke="#809bb3" vector-effect="non-scaling-stroke" d="
  M 471.29 162.30
  L 471.52 163.34
  Q 471.59 163.63 471.87 163.72
  Q 472.07 163.79 472.30 163.75
  A 0.63 0.62 -0.8 0 0 472.81 163.24
  L 473.25 160.72
  Q 473.35 160.16 472.82 159.96
  Q 468.66 158.46 466.25 161.46
  C 462.67 165.91 467.43 173.49 472.99 168.82
  A 0.60 0.60 0.0 0 0 473.13 168.07
  L 472.96 167.76
  Q 472.76 167.40 472.39 167.57
  C 467.98 169.58 466.96 164.30 468.72 161.79
  A 1.43 1.43 0.0 0 1 471.29 162.30"
/>
<path stroke="#809bb3" vector-effect="non-scaling-stroke" d="
  M 479.78 164.76
  L 483.67 164.77
  Q 485.41 164.78 485.04 163.07
  L 484.72 161.56
  A 2.49 2.48 -4.0 0 0 482.46 159.60
  C 474.61 159.03 473.85 169.93 480.73 170.28
  Q 482.92 170.40 484.18 169.01
  Q 485.42 167.66 483.59 167.85
  L 481.53 168.06
  A 2.09 2.09 0.0 0 1 479.41 166.86
  L 479.00 165.98
  Q 478.43 164.76 479.78 164.76"
/>
<path stroke="#809bb3" vector-effect="non-scaling-stroke" d="
  M 395.55 161.80
  L 393.51 163.86
  A 1.24 1.23 52.0 0 0 393.33 165.34
  C 394.78 167.80 395.83 171.15 399.44 170.05
  A 0.63 0.63 0.0 0 0 399.60 168.92
  Q 397.17 167.34 395.92 164.67
  Q 395.72 164.23 396.03 163.85
  Q 397.24 162.42 398.75 161.44
  Q 401.40 159.74 398.25 159.75
  L 394.75 159.77
  A 0.43 0.43 0.0 0 0 394.43 160.49
  Q 394.80 160.92 395.34 161.05
  Q 396.11 161.23 395.55 161.80"
/>
<path stroke="#809bb3" vector-effect="non-scaling-stroke" d="
  M 428.4484 163.7538
  A 0.60 0.60 0.0 0 0 427.7918 163.2163
  L 423.4135 163.6533
  A 0.60 0.60 0.0 0 0 422.8761 164.3100
  L 422.9516 165.0662
  A 0.60 0.60 0.0 0 0 423.6082 165.6037
  L 427.9865 165.1667
  A 0.60 0.60 0.0 0 0 428.5239 164.5100
  L 428.4484 163.7538"
/>
<path stroke="#f6b295" vector-effect="non-scaling-stroke" d="
  M 188.89 114.17
  A 82.90 82.90 0.0 0 0 105.99 31.27
  A 82.90 82.90 0.0 0 0 23.09 114.17
  A 82.90 82.90 0.0 0 0 105.99 197.07
  A 82.90 82.90 0.0 0 0 188.89 114.17"
/>
<path stroke="#809bb3" vector-effect="non-scaling-stroke" d="
  M 87.86 131.75
  A 0.39 0.39 0.0 0 1 88.24 131.26
  L 150.24 131.26
  Q 150.74 131.26 150.86 130.77
  L 162.60 83.53
  Q 162.79 82.77 162.01 82.77
  L 75.76 82.77
  A 0.40 0.40 0.0 0 1 75.37 82.46
  L 72.61 71.25
  A 2.93 2.92 83.1 0 0 69.77 69.02
  L 53.49 69.02
  Q 50.28 69.02 50.17 72.23
  L 50.14 73.05
  A 2.38 2.38 0.0 0 0 52.52 75.51
  L 66.45 75.50
  Q 66.90 75.50 67.01 75.94
  L 84.71 145.83
  A 3.22 3.21 -7.0 0 0 87.83 148.26
  L 144.46 148.26
  Q 147.55 148.26 147.71 145.17
  L 147.75 144.39
  A 2.49 2.49 0.0 0 0 145.26 141.77
  L 90.98 141.78
  A 0.74 0.74 0.0 0 1 90.26 141.22
  L 87.86 131.75"
/>
<path stroke="#809bb3" vector-effect="non-scaling-stroke" d="
  M 144.29 163.20
  A 7.81 7.81 0.0 0 0 136.48 155.39
  A 7.81 7.81 0.0 0 0 128.67 163.20
  A 7.81 7.81 0.0 0 0 136.48 171.01
  A 7.81 7.81 0.0 0 0 144.29 163.20"
/>
<path stroke="#809bb3" vector-effect="non-scaling-stroke" d="
  M 103.57 163.20
  A 7.81 7.81 0.0 0 0 95.76 155.39
  A 7.81 7.81 0.0 0 0 87.95 163.20
  A 7.81 7.81 0.0 0 0 95.76 171.01
  A 7.81 7.81 0.0 0 0 103.57 163.20"
/>
<path stroke="#809bb3" vector-effect="non-scaling-stroke" d="
  M 127.25 99.05
  L 98.28 99.05
  A 1.23 1.23 0.0 0 0 97.05 100.22
  L 97.02 100.60
  Q 96.93 102.28 98.60 102.28
  L 126.75 102.29
  Q 127.85 102.29 127.09 103.08
  L 123.99 106.31
  A 1.48 1.48 0.0 0 0 123.96 108.33
  L 124.40 108.81
  A 1.15 1.15 0.0 0 0 126.05 108.85
  L 133.30 101.59
  A 1.31 1.31 0.0 0 0 133.31 99.74
  L 126.21 92.57
  A 1.26 1.26 0.0 0 0 124.32 92.69
  L 124.14 92.93
  Q 123.10 94.27 124.31 95.46
  L 127.46 98.55
  Q 127.97 99.05 127.25 99.05"
/>
<path stroke="#809bb3" vector-effect="non-scaling-stroke" d="
  M 103.27 118.92
  L 131.78 118.93
  Q 133.44 118.93 133.48 117.27
  L 133.49 116.93
  A 1.25 1.25 0.0 0 0 132.24 115.65
  L 103.29 115.63
  A 0.29 0.29 0.0 0 1 103.09 115.13
  L 106.62 111.73
  A 1.40 1.40 0.0 0 0 106.74 109.84
  L 106.48 109.52
  Q 105.38 108.17 104.16 109.40
  L 97.36 116.24
  A 1.60 1.60 0.0 0 0 97.37 118.51
  L 104.14 125.18
  Q 105.11 126.13 106.17 125.28
  L 106.52 124.99
  Q 107.63 124.10 106.64 123.08
  L 103.06 119.42
  Q 102.57 118.92 103.27 118.92"
/>
<path stroke="#809bb3" vector-effect="non-scaling-stroke" d="
  M 312.63 162.53
  L 312.53 167.57
  A 0.80 0.80 0.0 0 0 313.32 168.39
  L 313.99 168.40
  A 2.73 2.39 -88.9 0 0 316.43 165.72
  L 316.45 164.54
  A 2.73 2.39 -88.9 0 0 314.11 161.76
  L 313.44 161.75
  A 0.80 0.80 0.0 0 0 312.63 162.53"
/>
<path stroke="#809bb3" vector-effect="non-scaling-stroke" d="
  M 436.73 158.07
  L 436.49 162.62
  A 0.54 0.54 0.0 0 0 437.00 163.19
  L 437.92 163.24
  A 2.56 2.44 -87.0 0 0 440.49 160.81
  L 440.52 160.29
  A 2.56 2.44 -87.0 0 0 438.22 157.61
  L 437.30 157.56
  A 0.54 0.54 0.0 0 0 436.73 158.07"
/>
<path stroke="#809bb3" vector-effect="non-scaling-stroke" d="
  M 259.82 163.62
  L 262.28 163.32
  A 0.41 0.41 0.0 0 0 262.63 162.86
  L 262.61 162.71
  A 1.64 1.47 82.9 0 0 260.95 161.27
  L 260.60 161.31
  A 1.64 1.47 82.9 0 0 259.34 163.12
  L 259.36 163.27
  A 0.41 0.41 0.0 0 0 259.82 163.62"
/>
<path stroke="#809bb3" vector-effect="non-scaling-stroke" d="
  M 301.6640 168.6532
  A 3.67 2.13 86.5 0 0 303.5660 164.8600
  A 3.67 2.13 86.5 0 0 301.2160 161.3268
  A 3.67 2.13 86.5 0 0 299.3140 165.1200
  A 3.67 2.13 86.5 0 0 301.6640 168.6532"
/>
<path stroke="#809bb3" vector-effect="non-scaling-stroke" d="
  M 326.67 165.37
  L 324.61 166.21
  A 0.43 0.43 0.0 0 0 324.38 166.77
  L 324.48 167.01
  A 1.53 1.30 67.8 0 0 326.26 167.94
  L 326.70 167.76
  A 1.53 1.30 67.8 0 0 327.33 165.85
  L 327.23 165.61
  A 0.43 0.43 0.0 0 0 326.67 165.37"
/>
<path stroke="#809bb3" vector-effect="non-scaling-stroke" d="
  M 371.34 165.41
  L 369.35 166.25
  A 0.43 0.43 0.0 0 0 369.12 166.81
  L 369.21 167.01
  A 1.59 1.35 67.1 0 0 371.07 167.95
  L 371.36 167.83
  A 1.59 1.35 67.1 0 0 371.99 165.84
  L 371.90 165.64
  A 0.43 0.43 0.0 0 0 371.34 165.41"
/>
<path stroke="#809bb3" vector-effect="non-scaling-stroke" d="
  M 405.59 163.62
  L 407.97 163.32
  A 0.43 0.43 0.0 0 0 408.34 162.84
  L 408.32 162.66
  A 1.59 1.46 82.7 0 0 406.67 161.27
  L 406.33 161.31
  A 1.59 1.46 82.7 0 0 405.09 163.07
  L 405.11 163.25
  A 0.43 0.43 0.0 0 0 405.59 163.62"
/>
<path stroke="#809bb3" vector-effect="non-scaling-stroke" d="
  M 457.91 165.50
  L 455.91 166.14
  A 0.43 0.43 0.0 0 0 455.63 166.68
  L 455.73 167.00
  A 1.48 1.34 72.3 0 0 457.46 168.00
  L 457.72 167.91
  A 1.48 1.34 72.3 0 0 458.55 166.10
  L 458.45 165.78
  A 0.43 0.43 0.0 0 0 457.91 165.50"
/>
<path stroke="#809bb3" vector-effect="non-scaling-stroke" d="
  M 479.59 163.61
  L 481.97 163.32
  A 0.43 0.43 0.0 0 0 482.35 162.84
  L 482.33 162.68
  A 1.59 1.45 83.1 0 0 480.70 161.28
  L 480.34 161.32
  A 1.59 1.45 83.1 0 0 479.09 163.07
  L 479.11 163.23
  A 0.43 0.43 0.0 0 0 479.59 163.61"
/>
</g>
<path fill="#ffffff" d="
  M 0.00 0.00
  L 500.00 0.00
  L 500.00 233.00
  L 0.00 233.00
  L 0.00 0.00
  Z
  M 28.01 55.94
  Q 27.78 56.04 27.58 56.31
  Q 7.80 83.62 8.87 117.24
  Q 9.02 122.12 9.17 127.00
  Q 9.25 129.74 11.82 140.00
  C 13.76 147.75 17.04 154.56 20.58 161.65
  Q 20.69 161.86 20.88 162.02
  C 21.23 162.31 21.45 162.48 21.63 162.91
  Q 22.37 164.69 23.89 166.98
  C 38.57 188.94 60.30 204.37 86.09 209.79
  C 94.32 211.51 103.50 211.81 112.01 211.54
  C 155.44 210.14 194.06 175.37 201.98 133.12
  Q 203.08 127.20 203.34 118.30
  Q 203.65 107.66 203.13 103.37
  Q 198.85 68.62 175.16 45.34
  Q 158.66 29.13 136.67 21.93
  Q 133.86 21.01 131.05 20.10
  C 126.73 18.69 122.11 18.20 117.63 17.41
  Q 112.74 16.54 99.76 17.24
  C 71.87 18.75 46.03 32.64 28.85 54.53
  Q 28.61 54.84 28.47 55.38
  Q 28.37 55.77 28.01 55.94
  Z
  M 271.05 67.10
  A 0.30 0.30 0.0 0 0 270.75 67.40
  L 270.74 114.45
  A 0.30 0.30 0.0 0 1 270.19 114.62
  L 237.00 67.20
  A 0.30 0.30 0.0 0 0 236.75 67.07
  L 223.55 67.08
  A 0.30 0.30 0.0 0 0 223.25 67.38
  L 223.25 122.20
  A 0.30 0.30 0.0 0 0 223.55 122.50
  L 236.91 122.50
  A 0.30 0.30 0.0 0 0 237.21 122.20
  L 237.21 92.69
  A 0.30 0.30 0.0 0 1 237.76 92.52
  L 270.82 139.87
  A 0.30 0.30 0.0 0 0 271.07 140.00
  L 284.27 140.00
  A 0.30 0.30 0.0 0 0 284.57 139.70
  L 284.58 67.37
  A 0.30 0.30 0.0 0 0 284.28 67.07
  L 271.05 67.10
  Z
  M 333.44 108.96
  L 333.43 126.03
  Q 333.43 126.64 332.82 126.67
  C 314.70 127.64 303.75 117.35 306.17 98.85
  C 308.99 77.24 331.46 80.55 346.80 80.47
  Q 347.33 80.47 347.33 79.94
  L 347.31 67.78
  A 0.65 0.65 0.0 0 0 346.68 67.13
  C 327.44 66.60 302.94 66.64 294.47 87.93
  C 291.31 95.87 290.97 106.57 293.00 115.01
  C 299.12 140.59 325.73 140.49 346.65 139.95
  A 0.69 0.69 0.0 0 0 347.32 139.26
  L 347.33 94.79
  A 0.29 0.29 0.0 0 0 347.04 94.50
  L 319.92 94.50
  Q 319.35 94.50 319.35 95.08
  L 319.34 107.91
  A 0.57 0.57 0.0 0 0 319.91 108.48
  L 332.96 108.49
  Q 333.44 108.49 333.44 108.96
  Z
  M 419.75 100.31
  L 419.75 121.97
  A 0.47 0.46 0.0 0 0 420.22 122.43
  L 433.43 122.44
  A 0.18 0.17 90.0 0 0 433.60 122.26
  L 433.60 67.97
  A 0.89 0.89 0.0 0 0 432.72 67.08
  L 420.59 67.07
  A 1.17 1.16 12.2 0 0 419.53 67.75
  L 394.96 120.46
  A 0.31 0.31 0.0 0 1 394.40 120.47
  L 368.61 67.80
  A 1.31 1.30 76.8 0 0 367.44 67.07
  L 355.33 67.08
  A 0.84 0.84 0.0 0 0 354.50 67.92
  L 354.50 139.25
  A 0.75 0.75 0.0 0 0 355.25 140.00
  L 367.32 140.00
  Q 368.46 140.00 368.46 138.86
  L 368.46 99.05
  A 0.19 0.18 31.9 0 1 368.81 98.97
  L 388.23 136.56
  A 0.93 0.92 76.2 0 0 389.05 137.06
  L 400.22 137.06
  A 1.06 1.06 0.0 0 0 401.17 136.47
  L 419.29 100.20
  Q 419.75 99.27 419.75 100.31
  Z
  M 456.24 110.72
  Q 461.88 110.67 467.49 110.52
  C 477.80 110.23 488.08 105.35 490.46 94.50
  C 494.21 77.32 482.32 67.13 466.25 67.08
  Q 454.60 67.04 442.91 67.10
  A 0.91 0.91 0.0 0 0 442.00 68.01
  L 442.00 79.99
  Q 442.00 80.47 442.49 80.48
  Q 454.37 80.53 466.25 80.49
  C 480.56 80.43 481.40 97.20 466.25 97.19
  Q 454.25 97.19 442.34 97.16
  A 0.34 0.34 0.0 0 0 442.00 97.50
  L 442.00 139.25
  A 0.75 0.74 -0.0 0 0 442.75 139.99
  L 454.53 140.00
  Q 455.69 140.00 455.69 138.84
  L 455.70 111.26
  Q 455.70 110.72 456.24 110.72
  Z
  M 252.59 167.93
  L 253.07 154.10
  Q 253.09 153.60 252.60 153.68
  L 249.12 154.24
  Q 248.85 154.28 248.70 154.50
  Q 248.54 154.73 248.51 154.99
  A 0.33 0.33 0.0 0 0 248.82 155.36
  Q 249.51 155.40 249.89 155.90
  Q 250.10 156.16 250.10 156.66
  Q 250.13 162.09 250.09 167.56
  Q 250.08 168.10 249.67 168.45
  Q 249.15 168.90 248.97 169.53
  A 0.46 0.45 -83.0 0 0 249.42 170.11
  L 253.54 169.97
  A 0.49 0.48 -88.7 0 0 254.01 169.51
  Q 254.02 169.36 254.02 169.22
  Q 254.04 168.88 253.75 168.70
  Q 253.46 168.51 253.10 168.49
  Q 252.57 168.46 252.59 167.93
  Z
  M 292.59 167.93
  L 293.07 154.15
  Q 293.08 153.71 292.65 153.73
  Q 290.73 153.80 288.90 154.42
  Q 288.70 154.48 288.62 154.62
  Q 288.50 154.79 288.51 154.97
  Q 288.53 155.33 288.89 155.39
  Q 290.10 155.59 290.11 157.25
  Q 290.13 162.38 290.09 167.54
  Q 290.08 168.09 289.67 168.45
  Q 289.16 168.90 288.97 169.53
  A 0.45 0.45 0.0 0 0 289.42 170.11
  L 293.54 169.97
  A 0.49 0.48 -88.7 0 0 294.01 169.51
  Q 294.02 169.36 294.02 169.21
  Q 294.04 168.87 293.74 168.69
  Q 293.45 168.52 293.11 168.50
  Q 292.57 168.47 292.59 167.93
  Z
  M 312.64 160.22
  L 313.05 154.08
  Q 313.08 153.67 312.66 153.70
  Q 309.98 153.90 308.85 154.34
  Q 308.44 154.50 308.37 154.77
  Q 308.23 155.28 308.75 155.41
  L 309.47 155.58
  Q 310.00 155.70 310.00 156.25
  L 310.00 169.22
  Q 310.00 169.62 310.39 169.76
  C 322.37 173.82 320.89 155.45 313.20 160.55
  Q 312.59 160.96 312.64 160.22
  Z
  M 337.59 167.93
  L 338.07 154.15
  Q 338.08 153.73 337.66 153.74
  Q 335.73 153.79 334.29 154.26
  Q 332.70 154.78 334.23 155.47
  L 334.68 155.67
  A 0.76 0.75 -78.0 0 1 335.12 156.36
  L 335.10 167.50
  Q 335.10 168.08 334.67 168.46
  Q 334.15 168.90 333.97 169.53
  A 0.45 0.45 0.0 0 0 334.42 170.11
  L 338.55 169.97
  Q 338.98 169.96 339.01 169.53
  Q 339.02 169.36 339.02 169.19
  Q 339.04 168.87 338.77 168.71
  Q 338.47 168.52 338.11 168.50
  Q 337.57 168.47 337.59 167.93
  Z
  M 392.57 167.62
  L 393.06 154.14
  Q 393.07 153.71 392.63 153.72
  Q 390.73 153.79 388.90 154.39
  Q 388.71 154.46 388.62 154.59
  Q 388.51 154.77 388.51 154.93
  Q 388.51 155.32 388.89 155.38
  Q 390.09 155.56 390.11 157.00
  Q 390.15 162.24 390.10 167.51
  Q 390.09 168.05 389.69 168.42
  Q 389.21 168.85 389.00 169.43
  Q 388.77 170.07 389.45 170.06
  L 393.48 169.99
  A 0.44 0.44 0.0 0 0 393.91 169.47
  Q 393.76 168.66 393.01 168.33
  Q 392.55 168.13 392.57 167.62
  Z
  M 449.35 167.83
  L 449.82 154.10
  Q 449.84 153.61 449.36 153.68
  L 446.00 154.21
  Q 445.81 154.24 445.50 154.50
  Q 445.27 154.69 445.25 154.99
  A 0.44 0.44 0.0 0 0 445.59 155.44
  L 446.33 155.60
  A 0.69 0.68 -83.7 0 1 446.86 156.27
  Q 446.90 161.78 446.86 167.29
  C 446.86 167.92 446.60 168.34 446.23 168.78
  Q 445.12 170.10 446.85 170.06
  L 450.29 169.97
  A 0.64 0.64 0.0 0 0 450.77 168.92
  Q 450.45 168.54 449.94 168.50
  Q 449.32 168.45 449.35 167.83
  Z
  M 245.59 155.96
  A 1.64 1.64 0.0 0 0 243.95 154.32
  A 1.64 1.64 0.0 0 0 242.31 155.96
  A 1.64 1.64 0.0 0 0 243.95 157.60
  A 1.64 1.64 0.0 0 0 245.59 155.96
  Z
  M 282.09 168.01
  C 275.01 170.00 274.34 155.58 282.37 157.92
  Q 282.88 158.07 282.97 158.59
  L 283.22 160.09
  A 0.57 0.56 -8.1 0 0 283.84 160.55
  L 284.50 160.48
  Q 285.16 160.40 285.26 159.74
  L 285.68 156.72
  Q 285.75 156.19 285.23 156.04
  C 268.96 151.65 269.91 175.56 284.99 169.31
  Q 285.44 169.13 285.35 168.65
  Q 284.81 165.78 286.05 163.24
  Q 286.30 162.74 285.74 162.74
  L 281.17 162.76
  A 0.61 0.61 0.0 0 0 280.56 163.33
  L 280.50 163.98
  Q 280.46 164.49 280.98 164.50
  L 282.01 164.51
  Q 282.75 164.52 282.74 165.26
  L 282.71 167.21
  Q 282.70 167.84 282.09 168.01
  Z
  M 228.64 161.12
  Q 231.60 165.20 234.20 169.55
  C 234.85 170.63 235.67 170.78 236.79 170.34
  Q 237.17 170.18 237.18 169.77
  L 237.47 158.24
  Q 237.49 157.61 238.10 157.41
  Q 238.93 157.14 239.00 156.25
  Q 239.04 155.73 238.51 155.73
  L 233.81 155.77
  Q 233.40 155.77 233.41 156.18
  L 233.41 156.76
  Q 233.42 157.11 233.76 157.17
  L 234.46 157.30
  A 0.67 0.67 0.0 0 1 235.01 157.96
  L 235.00 164.23
  Q 234.99 165.35 234.38 164.41
  L 229.10 156.19
  Q 228.82 155.75 228.29 155.75
  L 224.52 155.75
  A 0.48 0.47 -83.0 0 0 224.06 156.11
  Q 223.92 156.67 224.42 157.10
  A 0.50 0.47 72.8 0 0 224.60 157.20
  L 225.50 157.50
  Q 226.04 157.68 226.02 158.25
  L 225.71 167.45
  Q 225.69 167.92 225.34 168.22
  Q 224.99 168.54 224.61 168.82
  Q 224.39 168.99 224.31 169.15
  Q 224.21 169.37 224.24 169.58
  Q 224.31 170.07 224.80 170.06
  L 229.36 169.98
  Q 229.94 169.97 229.96 169.39
  L 229.98 169.02
  Q 230.00 168.54 229.52 168.53
  L 228.66 168.50
  Q 228.10 168.48 228.11 167.92
  L 228.18 161.27
  Q 228.19 160.50 228.64 161.12
  Z
  M 359.43 160.99
  L 359.84 167.77
  Q 359.87 168.28 359.39 168.46
  Q 358.50 168.78 358.48 169.65
  Q 358.46 170.12 358.93 170.11
  L 363.53 169.97
  Q 363.98 169.95 363.99 169.50
  Q 364.01 168.52 363.01 168.42
  Q 362.41 168.36 362.36 167.76
  Q 362.14 165.30 361.76 159.25
  Q 361.64 157.34 362.70 157.18
  Q 363.28 157.09 363.43 156.53
  L 363.52 156.19
  Q 363.64 155.72 363.15 155.72
  L 358.99 155.78
  Q 358.49 155.79 358.33 156.26
  L 355.84 164.03
  Q 355.43 165.32 355.04 164.02
  L 352.70 156.26
  Q 352.54 155.74 352.00 155.74
  L 347.63 155.76
  A 0.41 0.40 -3.1 0 0 347.22 156.20
  L 347.26 156.56
  Q 347.33 157.18 347.95 157.22
  Q 349.12 157.30 349.00 158.50
  Q 348.58 162.72 348.14 166.95
  Q 348.01 168.16 347.02 168.79
  Q 346.75 168.96 346.71 169.29
  Q 346.69 169.45 346.69 169.62
  Q 346.69 170.08 347.15 170.07
  L 350.95 169.99
  Q 351.41 169.97 351.57 169.55
  L 351.66 169.29
  Q 351.78 168.97 351.52 168.76
  Q 351.20 168.48 350.79 168.51
  A 0.69 0.69 0.0 0 1 350.07 167.78
  L 350.54 161.03
  Q 350.63 159.61 351.08 160.96
  L 353.59 168.48
  Q 354.92 172.45 356.27 168.49
  L 358.86 160.91
  Q 359.34 159.49 359.43 160.99
  Z
  M 433.61 158.10
  L 433.56 167.53
  A 0.73 0.71 -11.9 0 1 433.12 168.19
  Q 432.10 168.61 431.97 169.65
  Q 431.91 170.14 432.40 170.12
  L 437.80 169.96
  Q 438.43 169.94 438.54 169.32
  L 438.58 169.06
  A 0.41 0.41 0.0 0 0 438.21 168.58
  L 436.96 168.47
  Q 436.50 168.43 436.49 167.96
  L 436.46 165.51
  Q 436.45 164.95 437.01 164.97
  C 444.23 165.31 446.09 156.24 439.75 155.77
  Q 437.96 155.64 432.64 155.81
  Q 432.11 155.82 432.03 156.35
  Q 431.97 156.75 432.32 157.06
  Q 432.45 157.17 432.75 157.25
  Q 432.93 157.30 433.11 157.37
  Q 433.61 157.57 433.61 158.10
  Z
  M 417.34 159.36
  Q 417.51 158.92 417.52 158.43
  A 0.48 0.47 74.7 0 0 416.79 158.01
  L 413.29 160.27
  A 0.53 0.53 0.0 0 0 413.17 161.06
  Q 413.52 161.48 414.03 161.67
  Q 414.48 161.83 414.49 162.31
  Q 414.55 165.04 414.51 167.76
  C 414.46 170.33 417.45 170.81 419.20 169.37
  Q 421.16 167.76 418.49 168.02
  Q 418.05 168.06 417.60 167.88
  A 0.77 0.76 -79.2 0 1 417.11 167.15
  L 417.15 162.05
  Q 417.15 161.51 417.70 161.51
  L 419.48 161.51
  A 0.52 0.52 0.0 0 0 420.00 160.99
  L 420.00 160.73
  Q 420.00 160.00 419.27 160.00
  L 417.77 160.00
  A 0.47 0.46 -79.2 0 1 417.34 159.36
  Z
  M 242.76 162.23
  L 242.75 167.75
  A 0.88 0.87 -12.9 0 1 242.25 168.54
  Q 241.56 168.87 241.33 169.61
  A 0.41 0.41 0.0 0 0 241.74 170.15
  L 246.18 169.95
  A 0.54 0.54 0.0 0 0 246.68 169.47
  L 246.71 169.14
  Q 246.75 168.72 246.33 168.69
  Q 245.80 168.64 245.50 168.35
  Q 245.27 168.12 245.28 167.59
  Q 245.35 163.88 245.68 160.13
  Q 245.73 159.54 245.14 159.64
  L 241.97 160.18
  A 0.69 0.69 0.0 0 0 242.04 161.54
  Q 242.20 161.55 242.35 161.61
  Q 242.76 161.78 242.76 162.23
  Z
  M 260.04 164.78
  L 264.50 164.77
  Q 265.02 164.77 265.14 164.27
  C 266.54 158.70 259.25 158.23 257.20 162.00
  C 254.27 167.39 259.23 172.80 264.54 169.06
  Q 265.24 168.57 264.95 167.95
  Q 264.74 167.49 264.26 167.64
  Q 262.82 168.11 261.32 168.01
  A 1.97 1.97 0.0 0 1 259.65 166.84
  L 259.27 165.97
  Q 258.75 164.78 260.04 164.78
  Z
  M 299.6398 170.0589
  A 5.48 5.00 109.4 0 0 306.1761 166.5508
  A 5.48 5.00 109.4 0 0 303.2802 159.7211
  A 5.48 5.00 109.4 0 0 296.7439 163.2292
  A 5.48 5.00 109.4 0 0 299.6398 170.0589
  Z
  M 327.68 169.12
  Q 328.06 169.96 329.03 170.19
  Q 329.59 170.32 330.08 170.02
  Q 331.10 169.41 331.66 168.34
  A 0.38 0.38 0.0 0 0 331.25 167.79
  L 330.31 167.96
  A 0.56 0.56 0.0 0 1 329.65 167.35
  C 329.87 165.21 330.71 161.85 329.00 160.33
  C 327.31 158.83 323.88 159.83 322.53 161.37
  A 0.61 0.61 0.0 0 0 322.57 162.21
  L 322.79 162.42
  A 0.45 0.44 45.5 0 0 323.39 162.43
  Q 324.90 161.07 326.47 161.80
  Q 327.72 162.38 327.36 163.71
  Q 327.24 164.16 326.79 164.27
  L 323.23 165.11
  A 1.80 1.80 0.0 0 0 321.86 166.94
  Q 321.98 169.52 324.43 170.15
  A 1.29 1.29 0.0 0 0 325.53 169.94
  L 326.94 168.92
  Q 327.43 168.56 327.68 169.12
  Z
  M 372.40 169.03
  C 373.53 171.43 375.70 169.81 376.43 168.27
  Q 376.76 167.58 376.03 167.82
  Q 375.54 167.98 375.01 167.91
  A 0.64 0.63 5.0 0 1 374.46 167.26
  C 374.52 164.77 376.04 159.61 371.74 159.53
  Q 369.38 159.48 367.13 161.33
  A 0.52 0.52 0.0 0 0 367.09 162.10
  L 367.36 162.36
  A 0.36 0.35 -33.5 0 0 367.73 162.43
  L 369.94 161.60
  A 1.51 1.50 67.9 0 1 371.86 162.42
  L 372.11 163.02
  A 0.93 0.92 -18.4 0 1 371.47 164.28
  L 367.94 165.12
  A 1.98 1.97 -21.0 0 0 366.66 167.98
  C 368.04 170.52 369.57 170.75 371.70 168.88
  Q 372.15 168.49 372.40 169.03
  Z
  M 382.77 161.15
  Q 382.70 160.66 382.83 160.09
  A 0.46 0.46 0.0 0 0 382.27 159.54
  L 378.85 160.33
  A 0.52 0.52 0.0 0 0 378.79 161.32
  L 379.57 161.60
  A 0.76 0.75 9.9 0 1 380.08 162.31
  L 380.08 167.69
  Q 380.08 168.14 379.71 168.41
  Q 379.17 168.81 378.87 169.40
  Q 378.55 170.03 379.25 170.02
  L 383.93 170.00
  A 0.74 0.73 -81.4 0 0 384.63 169.48
  L 384.75 169.08
  Q 384.91 168.53 384.33 168.52
  L 383.25 168.51
  Q 382.72 168.50 382.70 167.97
  C 382.63 166.48 382.19 162.90 384.06 162.35
  Q 384.63 162.18 384.77 162.75
  L 384.98 163.56
  Q 385.06 163.90 385.40 163.99
  Q 385.65 164.05 385.91 163.99
  Q 386.38 163.88 386.43 163.40
  L 386.75 160.22
  Q 386.82 159.51 386.12 159.61
  Q 384.33 159.87 383.34 161.29
  Q 382.88 161.94 382.77 161.15
  Z
  M 405.78 164.77
  L 409.91 164.77
  A 1.20 1.20 0.0 0 0 411.08 163.32
  L 410.68 161.45
  A 2.37 2.37 0.0 0 0 408.48 159.58
  C 401.13 159.19 399.63 168.90 406.05 170.22
  Q 408.38 170.70 410.02 169.23
  Q 411.94 167.51 409.38 167.84
  L 407.56 168.07
  A 2.07 2.07 0.0 0 1 405.42 166.89
  L 405.00 165.98
  Q 404.44 164.77 405.78 164.77
  Z
  M 458.91 169.02
  C 459.93 171.32 462.28 169.99 462.86 168.21
  Q 463.04 167.64 462.46 167.75
  L 461.49 167.93
  A 0.49 0.48 85.2 0 1 460.92 167.44
  C 460.99 164.55 462.79 159.86 457.99 159.52
  Q 456.37 159.40 454.01 161.05
  A 0.75 0.75 0.0 0 0 453.77 162.02
  L 453.94 162.33
  A 0.41 0.41 0.0 0 0 454.56 162.46
  Q 456.87 160.52 458.64 162.81
  A 0.87 0.87 0.0 0 1 458.17 164.18
  C 456.24 164.68 451.80 164.85 453.43 168.33
  Q 454.33 170.25 456.25 170.12
  Q 456.78 170.09 457.17 169.72
  L 458.11 168.85
  Q 458.62 168.38 458.91 169.02
  Z
  M 471.29 162.30
  L 471.52 163.34
  Q 471.59 163.63 471.87 163.72
  Q 472.07 163.79 472.30 163.75
  A 0.63 0.62 -0.8 0 0 472.81 163.24
  L 473.25 160.72
  Q 473.35 160.16 472.82 159.96
  Q 468.66 158.46 466.25 161.46
  C 462.67 165.91 467.43 173.49 472.99 168.82
  A 0.60 0.60 0.0 0 0 473.13 168.07
  L 472.96 167.76
  Q 472.76 167.40 472.39 167.57
  C 467.98 169.58 466.96 164.30 468.72 161.79
  A 1.43 1.43 0.0 0 1 471.29 162.30
  Z
  M 479.78 164.76
  L 483.67 164.77
  Q 485.41 164.78 485.04 163.07
  L 484.72 161.56
  A 2.49 2.48 -4.0 0 0 482.46 159.60
  C 474.61 159.03 473.85 169.93 480.73 170.28
  Q 482.92 170.40 484.18 169.01
  Q 485.42 167.66 483.59 167.85
  L 481.53 168.06
  A 2.09 2.09 0.0 0 1 479.41 166.86
  L 479.00 165.98
  Q 478.43 164.76 479.78 164.76
  Z
  M 395.55 161.80
  L 393.51 163.86
  A 1.24 1.23 52.0 0 0 393.33 165.34
  C 394.78 167.80 395.83 171.15 399.44 170.05
  A 0.63 0.63 0.0 0 0 399.60 168.92
  Q 397.17 167.34 395.92 164.67
  Q 395.72 164.23 396.03 163.85
  Q 397.24 162.42 398.75 161.44
  Q 401.40 159.74 398.25 159.75
  L 394.75 159.77
  A 0.43 0.43 0.0 0 0 394.43 160.49
  Q 394.80 160.92 395.34 161.05
  Q 396.11 161.23 395.55 161.80
  Z
  M 428.4484 163.7538
  A 0.60 0.60 0.0 0 0 427.7918 163.2163
  L 423.4135 163.6533
  A 0.60 0.60 0.0 0 0 422.8761 164.3100
  L 422.9516 165.0662
  A 0.60 0.60 0.0 0 0 423.6082 165.6037
  L 427.9865 165.1667
  A 0.60 0.60 0.0 0 0 428.5239 164.5100
  L 428.4484 163.7538
  Z"
/>
<path fill="#ed642b" d="
  M 28.47 55.38
  Q 28.61 54.84 28.85 54.53
  C 46.03 32.64 71.87 18.75 99.76 17.24
  Q 112.74 16.54 117.63 17.41
  C 122.11 18.20 126.73 18.69 131.05 20.10
  Q 133.86 21.01 136.67 21.93
  Q 158.66 29.13 175.16 45.34
  Q 198.85 68.62 203.13 103.37
  Q 203.65 107.66 203.34 118.30
  Q 203.08 127.20 201.98 133.12
  C 194.06 175.37 155.44 210.14 112.01 211.54
  C 103.50 211.81 94.32 211.51 86.09 209.79
  C 60.30 204.37 38.57 188.94 23.89 166.98
  Q 22.37 164.69 21.63 162.91
  C 21.45 162.48 21.23 162.31 20.88 162.02
  Q 20.69 161.86 20.58 161.65
  C 17.04 154.56 13.76 147.75 11.82 140.00
  Q 9.25 129.74 9.17 127.00
  Q 9.02 122.12 8.87 117.24
  Q 7.80 83.62 27.58 56.31
  Q 27.78 56.04 28.01 55.94
  Q 28.37 55.77 28.47 55.38
  Z
  M 188.89 114.17
  A 82.90 82.90 0.0 0 0 105.99 31.27
  A 82.90 82.90 0.0 0 0 23.09 114.17
  A 82.90 82.90 0.0 0 0 105.99 197.07
  A 82.90 82.90 0.0 0 0 188.89 114.17
  Z"
/>
<path fill="#ffffff" d="
  M 188.89 114.17
  A 82.90 82.90 0.0 0 1 105.99 197.07
  A 82.90 82.90 0.0 0 1 23.09 114.17
  A 82.90 82.90 0.0 0 1 105.99 31.27
  A 82.90 82.90 0.0 0 1 188.89 114.17
  Z
  M 87.86 131.75
  A 0.39 0.39 0.0 0 1 88.24 131.26
  L 150.24 131.26
  Q 150.74 131.26 150.86 130.77
  L 162.60 83.53
  Q 162.79 82.77 162.01 82.77
  L 75.76 82.77
  A 0.40 0.40 0.0 0 1 75.37 82.46
  L 72.61 71.25
  A 2.93 2.92 83.1 0 0 69.77 69.02
  L 53.49 69.02
  Q 50.28 69.02 50.17 72.23
  L 50.14 73.05
  A 2.38 2.38 0.0 0 0 52.52 75.51
  L 66.45 75.50
  Q 66.90 75.50 67.01 75.94
  L 84.71 145.83
  A 3.22 3.21 -7.0 0 0 87.83 148.26
  L 144.46 148.26
  Q 147.55 148.26 147.71 145.17
  L 147.75 144.39
  A 2.49 2.49 0.0 0 0 145.26 141.77
  L 90.98 141.78
  A 0.74 0.74 0.0 0 1 90.26 141.22
  L 87.86 131.75
  Z
  M 144.29 163.20
  A 7.81 7.81 0.0 0 0 136.48 155.39
  A 7.81 7.81 0.0 0 0 128.67 163.20
  A 7.81 7.81 0.0 0 0 136.48 171.01
  A 7.81 7.81 0.0 0 0 144.29 163.20
  Z
  M 103.57 163.20
  A 7.81 7.81 0.0 0 0 95.76 155.39
  A 7.81 7.81 0.0 0 0 87.95 163.20
  A 7.81 7.81 0.0 0 0 95.76 171.01
  A 7.81 7.81 0.0 0 0 103.57 163.20
  Z"
/>
<path fill="#013766" d="
  M 271.05 67.10
  L 284.28 67.07
  A 0.30 0.30 0.0 0 1 284.58 67.37
  L 284.57 139.70
  A 0.30 0.30 0.0 0 1 284.27 140.00
  L 271.07 140.00
  A 0.30 0.30 0.0 0 1 270.82 139.87
  L 237.76 92.52
  A 0.30 0.30 0.0 0 0 237.21 92.69
  L 237.21 122.20
  A 0.30 0.30 0.0 0 1 236.91 122.50
  L 223.55 122.50
  A 0.30 0.30 0.0 0 1 223.25 122.20
  L 223.25 67.38
  A 0.30 0.30 0.0 0 1 223.55 67.08
  L 236.75 67.07
  A 0.30 0.30 0.0 0 1 237.00 67.20
  L 270.19 114.62
  A 0.30 0.30 0.0 0 0 270.74 114.45
  L 270.75 67.40
  A 0.30 0.30 0.0 0 1 271.05 67.10
  Z"
/>
<path fill="#013766" d="
  M 332.96 108.49
  L 319.91 108.48
  A 0.57 0.57 0.0 0 1 319.34 107.91
  L 319.35 95.08
  Q 319.35 94.50 319.92 94.50
  L 347.04 94.50
  A 0.29 0.29 0.0 0 1 347.33 94.79
  L 347.32 139.26
  A 0.69 0.69 0.0 0 1 346.65 139.95
  C 325.73 140.49 299.12 140.59 293.00 115.01
  C 290.97 106.57 291.31 95.87 294.47 87.93
  C 302.94 66.64 327.44 66.60 346.68 67.13
  A 0.65 0.65 0.0 0 1 347.31 67.78
  L 347.33 79.94
  Q 347.33 80.47 346.80 80.47
  C 331.46 80.55 308.99 77.24 306.17 98.85
  C 303.75 117.35 314.70 127.64 332.82 126.67
  Q 333.43 126.64 333.43 126.03
  L 333.44 108.96
  Q 333.44 108.49 332.96 108.49
  Z"
/>
<path fill="#013766" d="
  M 419.29 100.20
  L 401.17 136.47
  A 1.06 1.06 0.0 0 1 400.22 137.06
  L 389.05 137.06
  A 0.93 0.92 76.2 0 1 388.23 136.56
  L 368.81 98.97
  A 0.19 0.18 31.9 0 0 368.46 99.05
  L 368.46 138.86
  Q 368.46 140.00 367.32 140.00
  L 355.25 140.00
  A 0.75 0.75 0.0 0 1 354.50 139.25
  L 354.50 67.92
  A 0.84 0.84 0.0 0 1 355.33 67.08
  L 367.44 67.07
  A 1.31 1.30 76.8 0 1 368.61 67.80
  L 394.40 120.47
  A 0.31 0.31 0.0 0 0 394.96 120.46
  L 419.53 67.75
  A 1.17 1.16 12.2 0 1 420.59 67.07
  L 432.72 67.08
  A 0.89 0.89 0.0 0 1 433.60 67.97
  L 433.60 122.26
  A 0.18 0.17 90.0 0 1 433.43 122.44
  L 420.22 122.43
  A 0.47 0.46 -0.0 0 1 419.75 121.97
  L 419.75 100.31
  Q 419.75 99.27 419.29 100.20
  Z"
/>
<path fill="#013766" d="
  M 455.70 111.26
  L 455.69 138.84
  Q 455.69 140.00 454.53 140.00
  L 442.75 139.99
  A 0.75 0.74 -0.0 0 1 442.00 139.25
  L 442.00 97.50
  A 0.34 0.34 0.0 0 1 442.34 97.16
  Q 454.25 97.19 466.25 97.19
  C 481.40 97.20 480.56 80.43 466.25 80.49
  Q 454.37 80.53 442.49 80.48
  Q 442.00 80.47 442.00 79.99
  L 442.00 68.01
  A 0.91 0.91 0.0 0 1 442.91 67.10
  Q 454.60 67.04 466.25 67.08
  C 482.32 67.13 494.21 77.32 490.46 94.50
  C 488.08 105.35 477.80 110.23 467.49 110.52
  Q 461.88 110.67 456.24 110.72
  Q 455.70 110.72 455.70 111.26
  Z"
/>
<path fill="#013766" d="
  M 87.86 131.75
  L 90.26 141.22
  A 0.74 0.74 0.0 0 0 90.98 141.78
  L 145.26 141.77
  A 2.49 2.49 0.0 0 1 147.75 144.39
  L 147.71 145.17
  Q 147.55 148.26 144.46 148.26
  L 87.83 148.26
  A 3.22 3.21 -7.0 0 1 84.71 145.83
  L 67.01 75.94
  Q 66.90 75.50 66.45 75.50
  L 52.52 75.51
  A 2.38 2.38 0.0 0 1 50.14 73.05
  L 50.17 72.23
  Q 50.28 69.02 53.49 69.02
  L 69.77 69.02
  A 2.93 2.92 83.1 0 1 72.61 71.25
  L 75.37 82.46
  A 0.40 0.40 0.0 0 0 75.76 82.77
  L 162.01 82.77
  Q 162.79 82.77 162.60 83.53
  L 150.86 130.77
  Q 150.74 131.26 150.24 131.26
  L 88.24 131.26
  A 0.39 0.39 0.0 0 0 87.86 131.75
  Z
  M 127.25 99.05
  L 98.28 99.05
  A 1.23 1.23 0.0 0 0 97.05 100.22
  L 97.02 100.60
  Q 96.93 102.28 98.60 102.28
  L 126.75 102.29
  Q 127.85 102.29 127.09 103.08
  L 123.99 106.31
  A 1.48 1.48 0.0 0 0 123.96 108.33
  L 124.40 108.81
  A 1.15 1.15 0.0 0 0 126.05 108.85
  L 133.30 101.59
  A 1.31 1.31 0.0 0 0 133.31 99.74
  L 126.21 92.57
  A 1.26 1.26 0.0 0 0 124.32 92.69
  L 124.14 92.93
  Q 123.10 94.27 124.31 95.46
  L 127.46 98.55
  Q 127.97 99.05 127.25 99.05
  Z
  M 103.27 118.92
  L 131.78 118.93
  Q 133.44 118.93 133.48 117.27
  L 133.49 116.93
  A 1.25 1.25 0.0 0 0 132.24 115.65
  L 103.29 115.63
  A 0.29 0.29 0.0 0 1 103.09 115.13
  L 106.62 111.73
  A 1.40 1.40 0.0 0 0 106.74 109.84
  L 106.48 109.52
  Q 105.38 108.17 104.16 109.40
  L 97.36 116.24
  A 1.60 1.60 0.0 0 0 97.37 118.51
  L 104.14 125.18
  Q 105.11 126.13 106.17 125.28
  L 106.52 124.99
  Q 107.63 124.10 106.64 123.08
  L 103.06 119.42
  Q 102.57 118.92 103.27 118.92
  Z"
/>
<path fill="#ffffff" d="
  M 127.46 98.55
  L 124.31 95.46
  Q 123.10 94.27 124.14 92.93
  L 124.32 92.69
  A 1.26 1.26 0.0 0 1 126.21 92.57
  L 133.31 99.74
  A 1.31 1.31 0.0 0 1 133.30 101.59
  L 126.05 108.85
  A 1.15 1.15 0.0 0 1 124.40 108.81
  L 123.96 108.33
  A 1.48 1.48 0.0 0 1 123.99 106.31
  L 127.09 103.08
  Q 127.85 102.29 126.75 102.29
  L 98.60 102.28
  Q 96.93 102.28 97.02 100.60
  L 97.05 100.22
  A 1.23 1.23 0.0 0 1 98.28 99.05
  L 127.25 99.05
  Q 127.97 99.05 127.46 98.55
  Z"
/>
<path fill="#ffffff" d="
  M 103.06 119.42
  L 106.64 123.08
  Q 107.63 124.10 106.52 124.99
  L 106.17 125.28
  Q 105.11 126.13 104.14 125.18
  L 97.37 118.51
  A 1.60 1.60 0.0 0 1 97.36 116.24
  L 104.16 109.40
  Q 105.38 108.17 106.48 109.52
  L 106.74 109.84
  A 1.40 1.40 0.0 0 1 106.62 111.73
  L 103.09 115.13
  A 0.29 0.29 0.0 0 0 103.29 115.63
  L 132.24 115.65
  A 1.25 1.25 0.0 0 1 133.49 116.93
  L 133.48 117.27
  Q 133.44 118.93 131.78 118.93
  L 103.27 118.92
  Q 102.57 118.92 103.06 119.42
  Z"
/>
<path fill="#013766" d="
  M 253.10 168.49
  Q 253.46 168.51 253.75 168.70
  Q 254.04 168.88 254.02 169.22
  Q 254.02 169.36 254.01 169.51
  A 0.49 0.48 -88.7 0 1 253.54 169.97
  L 249.42 170.11
  A 0.46 0.45 -83.0 0 1 248.97 169.53
  Q 249.15 168.90 249.67 168.45
  Q 250.08 168.10 250.09 167.56
  Q 250.13 162.09 250.10 156.66
  Q 250.10 156.16 249.89 155.90
  Q 249.51 155.40 248.82 155.36
  A 0.33 0.33 0.0 0 1 248.51 154.99
  Q 248.54 154.73 248.70 154.50
  Q 248.85 154.28 249.12 154.24
  L 252.60 153.68
  Q 253.09 153.60 253.07 154.10
  L 252.59 167.93
  Q 252.57 168.46 253.10 168.49
  Z"
/>
<path fill="#013766" d="
  M 293.11 168.50
  Q 293.45 168.52 293.74 168.69
  Q 294.04 168.87 294.02 169.21
  Q 294.02 169.36 294.01 169.51
  A 0.49 0.48 -88.7 0 1 293.54 169.97
  L 289.42 170.11
  A 0.45 0.45 0.0 0 1 288.97 169.53
  Q 289.16 168.90 289.67 168.45
  Q 290.08 168.09 290.09 167.54
  Q 290.13 162.38 290.11 157.25
  Q 290.10 155.59 288.89 155.39
  Q 288.53 155.33 288.51 154.97
  Q 288.50 154.79 288.62 154.62
  Q 288.70 154.48 288.90 154.42
  Q 290.73 153.80 292.65 153.73
  Q 293.08 153.71 293.07 154.15
  L 292.59 167.93
  Q 292.57 168.47 293.11 168.50
  Z"
/>
<path fill="#013766" d="
  M 313.20 160.55
  C 320.89 155.45 322.37 173.82 310.39 169.76
  Q 310.00 169.62 310.00 169.22
  L 310.00 156.25
  Q 310.00 155.70 309.47 155.58
  L 308.75 155.41
  Q 308.23 155.28 308.37 154.77
  Q 308.44 154.50 308.85 154.34
  Q 309.98 153.90 312.66 153.70
  Q 313.08 153.67 313.05 154.08
  L 312.64 160.22
  Q 312.59 160.96 313.20 160.55
  Z
  M 312.63 162.53
  L 312.53 167.57
  A 0.80 0.80 0.0 0 0 313.32 168.39
  L 313.99 168.40
  A 2.73 2.39 -88.9 0 0 316.43 165.72
  L 316.45 164.54
  A 2.73 2.39 -88.9 0 0 314.11 161.76
  L 313.44 161.75
  A 0.80 0.80 0.0 0 0 312.63 162.53
  Z"
/>
<path fill="#013766" d="
  M 338.11 168.50
  Q 338.47 168.52 338.77 168.71
  Q 339.04 168.87 339.02 169.19
  Q 339.02 169.36 339.01 169.53
  Q 338.98 169.96 338.55 169.97
  L 334.42 170.11
  A 0.45 0.45 0.0 0 1 333.97 169.53
  Q 334.15 168.90 334.67 168.46
  Q 335.10 168.08 335.10 167.50
  L 335.12 156.36
  A 0.76 0.75 -78.0 0 0 334.68 155.67
  L 334.23 155.47
  Q 332.70 154.78 334.29 154.26
  Q 335.73 153.79 337.66 153.74
  Q 338.08 153.73 338.07 154.15
  L 337.59 167.93
  Q 337.57 168.47 338.11 168.50
  Z"
/>
<path fill="#013766" d="
  M 393.01 168.33
  Q 393.76 168.66 393.91 169.47
  A 0.44 0.44 0.0 0 1 393.48 169.99
  L 389.45 170.06
  Q 388.77 170.07 389.00 169.43
  Q 389.21 168.85 389.69 168.42
  Q 390.09 168.05 390.10 167.51
  Q 390.15 162.24 390.11 157.00
  Q 390.09 155.56 388.89 155.38
  Q 388.51 155.32 388.51 154.93
  Q 388.51 154.77 388.62 154.59
  Q 388.71 154.46 388.90 154.39
  Q 390.73 153.79 392.63 153.72
  Q 393.07 153.71 393.06 154.14
  L 392.57 167.62
  Q 392.55 168.13 393.01 168.33
  Z"
/>
<path fill="#013766" d="
  M 449.94 168.50
  Q 450.45 168.54 450.77 168.92
  A 0.64 0.64 0.0 0 1 450.29 169.97
  L 446.85 170.06
  Q 445.12 170.10 446.23 168.78
  C 446.60 168.34 446.86 167.92 446.86 167.29
  Q 446.90 161.78 446.86 156.27
  A 0.69 0.68 -83.7 0 0 446.33 155.60
  L 445.59 155.44
  A 0.44 0.44 0.0 0 1 445.25 154.99
  Q 445.27 154.69 445.50 154.50
  Q 445.81 154.24 446.00 154.21
  L 449.36 153.68
  Q 449.84 153.61 449.82 154.10
  L 449.35 167.83
  Q 449.32 168.45 449.94 168.50
  Z"
/>
<circle fill="#013766" cx="243.95" cy="155.96" r="1.64"/>
<circle fill="#013766" cx="136.48" cy="163.20" r="7.81"/>
<circle fill="#013766" cx="95.76" cy="163.20" r="7.81"/>
<path fill="#013766" d="
  M 282.71 167.21
  L 282.74 165.26
  Q 282.75 164.52 282.01 164.51
  L 280.98 164.50
  Q 280.46 164.49 280.50 163.98
  L 280.56 163.33
  A 0.61 0.61 0.0 0 1 281.17 162.76
  L 285.74 162.74
  Q 286.30 162.74 286.05 163.24
  Q 284.81 165.78 285.35 168.65
  Q 285.44 169.13 284.99 169.31
  C 269.91 175.56 268.96 151.65 285.23 156.04
  Q 285.75 156.19 285.68 156.72
  L 285.26 159.74
  Q 285.16 160.40 284.50 160.48
  L 283.84 160.55
  A 0.57 0.56 -8.1 0 1 283.22 160.09
  L 282.97 158.59
  Q 282.88 158.07 282.37 157.92
  C 274.34 155.58 275.01 170.00 282.09 168.01
  Q 282.70 167.84 282.71 167.21
  Z"
/>
<path fill="#013766" d="
  M 228.18 161.27
  L 228.11 167.92
  Q 228.10 168.48 228.66 168.50
  L 229.52 168.53
  Q 230.00 168.54 229.98 169.02
  L 229.96 169.39
  Q 229.94 169.97 229.36 169.98
  L 224.80 170.06
  Q 224.31 170.07 224.24 169.58
  Q 224.21 169.37 224.31 169.15
  Q 224.39 168.99 224.61 168.82
  Q 224.99 168.54 225.34 168.22
  Q 225.69 167.92 225.71 167.45
  L 226.02 158.25
  Q 226.04 157.68 225.50 157.50
  L 224.60 157.20
  A 0.50 0.47 72.8 0 1 224.42 157.10
  Q 223.92 156.67 224.06 156.11
  A 0.48 0.47 -83.0 0 1 224.52 155.75
  L 228.29 155.75
  Q 228.82 155.75 229.10 156.19
  L 234.38 164.41
  Q 234.99 165.35 235.00 164.23
  L 235.01 157.96
  A 0.67 0.67 0.0 0 0 234.46 157.30
  L 233.76 157.17
  Q 233.42 157.11 233.41 156.76
  L 233.41 156.18
  Q 233.40 155.77 233.81 155.77
  L 238.51 155.73
  Q 239.04 155.73 239.00 156.25
  Q 238.93 157.14 238.10 157.41
  Q 237.49 157.61 237.47 158.24
  L 237.18 169.77
  Q 237.17 170.18 236.79 170.34
  C 235.67 170.78 234.85 170.63 234.20 169.55
  Q 231.60 165.20 228.64 161.12
  Q 228.19 160.50 228.18 161.27
  Z"
/>
<path fill="#013766" d="
  M 359.43 160.99
  Q 359.34 159.49 358.86 160.91
  L 356.27 168.49
  Q 354.92 172.45 353.59 168.48
  L 351.08 160.96
  Q 350.63 159.61 350.54 161.03
  L 350.07 167.78
  A 0.69 0.69 0.0 0 0 350.79 168.51
  Q 351.20 168.48 351.52 168.76
  Q 351.78 168.97 351.66 169.29
  L 351.57 169.55
  Q 351.41 169.97 350.95 169.99
  L 347.15 170.07
  Q 346.69 170.08 346.69 169.62
  Q 346.69 169.45 346.71 169.29
  Q 346.75 168.96 347.02 168.79
  Q 348.01 168.16 348.14 166.95
  Q 348.58 162.72 349.00 158.50
  Q 349.12 157.30 347.95 157.22
  Q 347.33 157.18 347.26 156.56
  L 347.22 156.20
  A 0.41 0.40 -3.1 0 1 347.63 155.76
  L 352.00 155.74
  Q 352.54 155.74 352.70 156.26
  L 355.04 164.02
  Q 355.43 165.32 355.84 164.03
  L 358.33 156.26
  Q 358.49 155.79 358.99 155.78
  L 363.15 155.72
  Q 363.64 155.72 363.52 156.19
  L 363.43 156.53
  Q 363.28 157.09 362.70 157.18
  Q 361.64 157.34 361.76 159.25
  Q 362.14 165.30 362.36 167.76
  Q 362.41 168.36 363.01 168.42
  Q 364.01 168.52 363.99 169.50
  Q 363.98 169.95 363.53 169.97
  L 358.93 170.11
  Q 358.46 170.12 358.48 169.65
  Q 358.50 168.78 359.39 168.46
  Q 359.87 168.28 359.84 167.77
  L 359.43 160.99
  Z"
/>
<path fill="#013766" d="
  M 433.11 157.37
  Q 432.93 157.30 432.75 157.25
  Q 432.45 157.17 432.32 157.06
  Q 431.97 156.75 432.03 156.35
  Q 432.11 155.82 432.64 155.81
  Q 437.96 155.64 439.75 155.77
  C 446.09 156.24 444.23 165.31 437.01 164.97
  Q 436.45 164.95 436.46 165.51
  L 436.49 167.96
  Q 436.50 168.43 436.96 168.47
  L 438.21 168.58
  A 0.41 0.41 0.0 0 1 438.58 169.06
  L 438.54 169.32
  Q 438.43 169.94 437.80 169.96
  L 432.40 170.12
  Q 431.91 170.14 431.97 169.65
  Q 432.10 168.61 433.12 168.19
  A 0.73 0.71 -11.9 0 0 433.56 167.53
  L 433.61 158.10
  Q 433.61 157.57 433.11 157.37
  Z
  M 436.73 158.07
  L 436.49 162.62
  A 0.54 0.54 0.0 0 0 437.00 163.19
  L 437.92 163.24
  A 2.56 2.44 -87.0 0 0 440.49 160.81
  L 440.52 160.29
  A 2.56 2.44 -87.0 0 0 438.22 157.61
  L 437.30 157.56
  A 0.54 0.54 0.0 0 0 436.73 158.07
  Z"
/>
<path fill="#ffffff" d="
  M 436.73 158.07
  A 0.54 0.54 0.0 0 1 437.30 157.56
  L 438.22 157.61
  A 2.56 2.44 -87.0 0 1 440.52 160.29
  L 440.49 160.81
  A 2.56 2.44 -87.0 0 1 437.92 163.24
  L 437.00 163.19
  A 0.54 0.54 0.0 0 1 436.49 162.62
  L 436.73 158.07
  Z"
/>
<path fill="#013766" d="
  M 417.77 160.00
  L 419.27 160.00
  Q 420.00 160.00 420.00 160.73
  L 420.00 160.99
  A 0.52 0.52 0.0 0 1 419.48 161.51
  L 417.70 161.51
  Q 417.15 161.51 417.15 162.05
  L 417.11 167.15
  A 0.77 0.76 -79.2 0 0 417.60 167.88
  Q 418.05 168.06 418.49 168.02
  Q 421.16 167.76 419.20 169.37
  C 417.45 170.81 414.46 170.33 414.51 167.76
  Q 414.55 165.04 414.49 162.31
  Q 414.48 161.83 414.03 161.67
  Q 413.52 161.48 413.17 161.06
  A 0.53 0.53 0.0 0 1 413.29 160.27
  L 416.79 158.01
  A 0.48 0.47 74.7 0 1 417.52 158.43
  Q 417.51 158.92 417.34 159.36
  A 0.47 0.46 -79.2 0 0 417.77 160.00
  Z"
/>
<path fill="#013766" d="
  M 242.35 161.61
  Q 242.20 161.55 242.04 161.54
  A 0.69 0.69 0.0 0 1 241.97 160.18
  L 245.14 159.64
  Q 245.73 159.54 245.68 160.13
  Q 245.35 163.88 245.28 167.59
  Q 245.27 168.12 245.50 168.35
  Q 245.80 168.64 246.33 168.69
  Q 246.75 168.72 246.71 169.14
  L 246.68 169.47
  A 0.54 0.54 0.0 0 1 246.18 169.95
  L 241.74 170.15
  A 0.41 0.41 0.0 0 1 241.33 169.61
  Q 241.56 168.87 242.25 168.54
  A 0.88 0.87 -12.9 0 0 242.75 167.75
  L 242.76 162.23
  Q 242.76 161.78 242.35 161.61
  Z"
/>
<path fill="#013766" d="
  M 260.04 164.78
  Q 258.75 164.78 259.27 165.97
  L 259.65 166.84
  A 1.97 1.97 0.0 0 0 261.32 168.01
  Q 262.82 168.11 264.26 167.64
  Q 264.74 167.49 264.95 167.95
  Q 265.24 168.57 264.54 169.06
  C 259.23 172.80 254.27 167.39 257.20 162.00
  C 259.25 158.23 266.54 158.70 265.14 164.27
  Q 265.02 164.77 264.50 164.77
  L 260.04 164.78
  Z
  M 259.82 163.62
  L 262.28 163.32
  A 0.41 0.41 0.0 0 0 262.63 162.86
  L 262.61 162.71
  A 1.64 1.47 82.9 0 0 260.95 161.27
  L 260.60 161.31
  A 1.64 1.47 82.9 0 0 259.34 163.12
  L 259.36 163.27
  A 0.41 0.41 0.0 0 0 259.82 163.62
  Z"
/>
<path fill="#013766" d="
  M 299.6398 170.0589
  A 5.48 5.00 109.4 0 1 296.7439 163.2292
  A 5.48 5.00 109.4 0 1 303.2802 159.7211
  A 5.48 5.00 109.4 0 1 306.1761 166.5508
  A 5.48 5.00 109.4 0 1 299.6398 170.0589
  Z
  M 301.6640 168.6532
  A 3.67 2.13 86.5 0 0 303.5660 164.8600
  A 3.67 2.13 86.5 0 0 301.2160 161.3268
  A 3.67 2.13 86.5 0 0 299.3140 165.1200
  A 3.67 2.13 86.5 0 0 301.6640 168.6532
  Z"
/>
<path fill="#013766" d="
  M 326.94 168.92
  L 325.53 169.94
  A 1.29 1.29 0.0 0 1 324.43 170.15
  Q 321.98 169.52 321.86 166.94
  A 1.80 1.80 0.0 0 1 323.23 165.11
  L 326.79 164.27
  Q 327.24 164.16 327.36 163.71
  Q 327.72 162.38 326.47 161.80
  Q 324.90 161.07 323.39 162.43
  A 0.45 0.44 45.5 0 1 322.79 162.42
  L 322.57 162.21
  A 0.61 0.61 0.0 0 1 322.53 161.37
  C 323.88 159.83 327.31 158.83 329.00 160.33
  C 330.71 161.85 329.87 165.21 329.65 167.35
  A 0.56 0.56 0.0 0 0 330.31 167.96
  L 331.25 167.79
  A 0.38 0.38 0.0 0 1 331.66 168.34
  Q 331.10 169.41 330.08 170.02
  Q 329.59 170.32 329.03 170.19
  Q 328.06 169.96 327.68 169.12
  Q 327.43 168.56 326.94 168.92
  Z
  M 326.67 165.37
  L 324.61 166.21
  A 0.43 0.43 0.0 0 0 324.38 166.77
  L 324.48 167.01
  A 1.53 1.30 67.8 0 0 326.26 167.94
  L 326.70 167.76
  A 1.53 1.30 67.8 0 0 327.33 165.85
  L 327.23 165.61
  A 0.43 0.43 0.0 0 0 326.67 165.37
  Z"
/>
<path fill="#013766" d="
  M 371.70 168.88
  C 369.57 170.75 368.04 170.52 366.66 167.98
  A 1.98 1.97 -21.0 0 1 367.94 165.12
  L 371.47 164.28
  A 0.93 0.92 -18.4 0 0 372.11 163.02
  L 371.86 162.42
  A 1.51 1.50 67.9 0 0 369.94 161.60
  L 367.73 162.43
  A 0.36 0.35 -33.5 0 1 367.36 162.36
  L 367.09 162.10
  A 0.52 0.52 0.0 0 1 367.13 161.33
  Q 369.38 159.48 371.74 159.53
  C 376.04 159.61 374.52 164.77 374.46 167.26
  A 0.64 0.63 5.0 0 0 375.01 167.91
  Q 375.54 167.98 376.03 167.82
  Q 376.76 167.58 376.43 168.27
  C 375.70 169.81 373.53 171.43 372.40 169.03
  Q 372.15 168.49 371.70 168.88
  Z
  M 371.34 165.41
  L 369.35 166.25
  A 0.43 0.43 0.0 0 0 369.12 166.81
  L 369.21 167.01
  A 1.59 1.35 67.1 0 0 371.07 167.95
  L 371.36 167.83
  A 1.59 1.35 67.1 0 0 371.99 165.84
  L 371.90 165.64
  A 0.43 0.43 0.0 0 0 371.34 165.41
  Z"
/>
<path fill="#013766" d="
  M 383.34 161.29
  Q 384.33 159.87 386.12 159.61
  Q 386.82 159.51 386.75 160.22
  L 386.43 163.40
  Q 386.38 163.88 385.91 163.99
  Q 385.65 164.05 385.40 163.99
  Q 385.06 163.90 384.98 163.56
  L 384.77 162.75
  Q 384.63 162.18 384.06 162.35
  C 382.19 162.90 382.63 166.48 382.70 167.97
  Q 382.72 168.50 383.25 168.51
  L 384.33 168.52
  Q 384.91 168.53 384.75 169.08
  L 384.63 169.48
  A 0.74 0.73 -81.4 0 1 383.93 170.00
  L 379.25 170.02
  Q 378.55 170.03 378.87 169.40
  Q 379.17 168.81 379.71 168.41
  Q 380.08 168.14 380.08 167.69
  L 380.08 162.31
  A 0.76 0.75 9.9 0 0 379.57 161.60
  L 378.79 161.32
  A 0.52 0.52 0.0 0 1 378.85 160.33
  L 382.27 159.54
  A 0.46 0.46 0.0 0 1 382.83 160.09
  Q 382.70 160.66 382.77 161.15
  Q 382.88 161.94 383.34 161.29
  Z"
/>
<path fill="#013766" d="
  M 405.78 164.77
  Q 404.44 164.77 405.00 165.98
  L 405.42 166.89
  A 2.07 2.07 0.0 0 0 407.56 168.07
  L 409.38 167.84
  Q 411.94 167.51 410.02 169.23
  Q 408.38 170.70 406.05 170.22
  C 399.63 168.90 401.13 159.19 408.48 159.58
  A 2.37 2.37 0.0 0 1 410.68 161.45
  L 411.08 163.32
  A 1.20 1.20 0.0 0 1 409.91 164.77
  L 405.78 164.77
  Z
  M 405.59 163.62
  L 407.97 163.32
  A 0.43 0.43 0.0 0 0 408.34 162.84
  L 408.32 162.66
  A 1.59 1.46 82.7 0 0 406.67 161.27
  L 406.33 161.31
  A 1.59 1.46 82.7 0 0 405.09 163.07
  L 405.11 163.25
  A 0.43 0.43 0.0 0 0 405.59 163.62
  Z"
/>
<path fill="#013766" d="
  M 458.11 168.85
  L 457.17 169.72
  Q 456.78 170.09 456.25 170.12
  Q 454.33 170.25 453.43 168.33
  C 451.80 164.85 456.24 164.68 458.17 164.18
  A 0.87 0.87 0.0 0 0 458.64 162.81
  Q 456.87 160.52 454.56 162.46
  A 0.41 0.41 0.0 0 1 453.94 162.33
  L 453.77 162.02
  A 0.75 0.75 0.0 0 1 454.01 161.05
  Q 456.37 159.40 457.99 159.52
  C 462.79 159.86 460.99 164.55 460.92 167.44
  A 0.49 0.48 85.2 0 0 461.49 167.93
  L 462.46 167.75
  Q 463.04 167.64 462.86 168.21
  C 462.28 169.99 459.93 171.32 458.91 169.02
  Q 458.62 168.38 458.11 168.85
  Z
  M 457.91 165.50
  L 455.91 166.14
  A 0.43 0.43 0.0 0 0 455.63 166.68
  L 455.73 167.00
  A 1.48 1.34 72.3 0 0 457.46 168.00
  L 457.72 167.91
  A 1.48 1.34 72.3 0 0 458.55 166.10
  L 458.45 165.78
  A 0.43 0.43 0.0 0 0 457.91 165.50
  Z"
/>
<path fill="#013766" d="
  M 471.29 162.30
  A 1.43 1.43 0.0 0 0 468.72 161.79
  C 466.96 164.30 467.98 169.58 472.39 167.57
  Q 472.76 167.40 472.96 167.76
  L 473.13 168.07
  A 0.60 0.60 0.0 0 1 472.99 168.82
  C 467.43 173.49 462.67 165.91 466.25 161.46
  Q 468.66 158.46 472.82 159.96
  Q 473.35 160.16 473.25 160.72
  L 472.81 163.24
  A 0.63 0.62 -0.8 0 1 472.30 163.75
  Q 472.07 163.79 471.87 163.72
  Q 471.59 163.63 471.52 163.34
  L 471.29 162.30
  Z"
/>
<path fill="#013766" d="
  M 479.78 164.76
  Q 478.43 164.76 479.00 165.98
  L 479.41 166.86
  A 2.09 2.09 0.0 0 0 481.53 168.06
  L 483.59 167.85
  Q 485.42 167.66 484.18 169.01
  Q 482.92 170.40 480.73 170.28
  C 473.85 169.93 474.61 159.03 482.46 159.60
  A 2.49 2.48 -4.0 0 1 484.72 161.56
  L 485.04 163.07
  Q 485.41 164.78 483.67 164.77
  L 479.78 164.76
  Z
  M 479.59 163.61
  L 481.97 163.32
  A 0.43 0.43 0.0 0 0 482.35 162.84
  L 482.33 162.68
  A 1.59 1.45 83.1 0 0 480.70 161.28
  L 480.34 161.32
  A 1.59 1.45 83.1 0 0 479.09 163.07
  L 479.11 163.23
  A 0.43 0.43 0.0 0 0 479.59 163.61
  Z"
/>
<path fill="#013766" d="
  M 395.34 161.05
  Q 394.80 160.92 394.43 160.49
  A 0.43 0.43 0.0 0 1 394.75 159.77
  L 398.25 159.75
  Q 401.40 159.74 398.75 161.44
  Q 397.24 162.42 396.03 163.85
  Q 395.72 164.23 395.92 164.67
  Q 397.17 167.34 399.60 168.92
  A 0.63 0.63 0.0 0 1 399.44 170.05
  C 395.83 171.15 394.78 167.80 393.33 165.34
  A 1.24 1.23 52.0 0 1 393.51 163.86
  L 395.55 161.80
  Q 396.11 161.23 395.34 161.05
  Z"
/>
<path fill="#ffffff" d="
  M 259.82 163.62
  A 0.41 0.41 0.0 0 1 259.36 163.27
  L 259.34 163.12
  A 1.64 1.47 82.9 0 1 260.60 161.31
  L 260.95 161.27
  A 1.64 1.47 82.9 0 1 262.61 162.71
  L 262.63 162.86
  A 0.41 0.41 0.0 0 1 262.28 163.32
  L 259.82 163.62
  Z"
/>
<path fill="#ffffff" d="
  M 405.59 163.62
  A 0.43 0.43 0.0 0 1 405.11 163.25
  L 405.09 163.07
  A 1.59 1.46 82.7 0 1 406.33 161.31
  L 406.67 161.27
  A 1.59 1.46 82.7 0 1 408.32 162.66
  L 408.34 162.84
  A 0.43 0.43 0.0 0 1 407.97 163.32
  L 405.59 163.62
  Z"
/>
<path fill="#ffffff" d="
  M 479.59 163.61
  A 0.43 0.43 0.0 0 1 479.11 163.23
  L 479.09 163.07
  A 1.59 1.45 83.1 0 1 480.34 161.32
  L 480.70 161.28
  A 1.59 1.45 83.1 0 1 482.33 162.68
  L 482.35 162.84
  A 0.43 0.43 0.0 0 1 481.97 163.32
  L 479.59 163.61
  Z"
/>
<ellipse fill="#ffffff" cx="0.00" cy="0.00" transform="translate(301.44,164.99) rotate(86.5)" rx="3.67" ry="2.13"/>
<path fill="#ffffff" d="
  M 312.63 162.53
  A 0.80 0.80 0.0 0 1 313.44 161.75
  L 314.11 161.76
  A 2.73 2.39 -88.9 0 1 316.45 164.54
  L 316.43 165.72
  A 2.73 2.39 -88.9 0 1 313.99 168.40
  L 313.32 168.39
  A 0.80 0.80 0.0 0 1 312.53 167.57
  L 312.63 162.53
  Z"
/>
<rect fill="#013766" x="-2.80" y="-0.98" transform="translate(425.70,164.41) rotate(-5.7)" width="5.60" height="1.96" rx="0.60"/>
<path fill="#ffffff" d="
  M 326.67 165.37
  A 0.43 0.43 0.0 0 1 327.23 165.61
  L 327.33 165.85
  A 1.53 1.30 67.8 0 1 326.70 167.76
  L 326.26 167.94
  A 1.53 1.30 67.8 0 1 324.48 167.01
  L 324.38 166.77
  A 0.43 0.43 0.0 0 1 324.61 166.21
  L 326.67 165.37
  Z"
/>
<path fill="#ffffff" d="
  M 371.34 165.41
  A 0.43 0.43 0.0 0 1 371.90 165.64
  L 371.99 165.84
  A 1.59 1.35 67.1 0 1 371.36 167.83
  L 371.07 167.95
  A 1.59 1.35 67.1 0 1 369.21 167.01
  L 369.12 166.81
  A 0.43 0.43 0.0 0 1 369.35 166.25
  L 371.34 165.41
  Z"
/>
<path fill="#ffffff" d="
  M 457.91 165.50
  A 0.43 0.43 0.0 0 1 458.45 165.78
  L 458.55 166.10
  A 1.48 1.34 72.3 0 1 457.72 167.91
  L 457.46 168.00
  A 1.48 1.34 72.3 0 1 455.73 167.00
  L 455.63 166.68
  A 0.43 0.43 0.0 0 1 455.91 166.14
  L 457.91 165.50
  Z"
/>
</svg>
